<mxfile host="app.diagrams.net" modified="2024-03-26T21:33:07.584Z" agent="Mozilla/5.0 (X11; Linux x86_64) AppleWebKit/537.36 (KHTML, like Gecko) Chrome/122.0.0.0 Safari/537.36" version="24.2.0" etag="hpo38aUT6ZRP1VuEv9Xu" type="github">
  <diagram name="Page-1" id="DUTb22MbdC9ko_a6J0he">
    <mxGraphModel>
      <root>
        <mxCell id="0" />
        <mxCell id="1" parent="0" />
      </root>
    </mxGraphModel>
  </diagram>
</mxfile>
